<svg width="57" height="57" viewBox="0 0 57 57" fill="none" xmlns="http://www.w3.org/2000/svg">
<g id="User Icon">
<g id="Group">
<path id="Vector" d="M38.4512 4.75H18.5487C9.90375 4.75 4.75 9.90375 4.75 18.5487V38.4513C4.75 45.125 7.81375 49.7087 13.205 51.4425C14.7725 51.9888 16.5775 52.25 18.5487 52.25H38.4512C40.4225 52.25 42.2275 51.9888 43.795 51.4425C49.1862 49.7087 52.25 45.125 52.25 38.4513V18.5487C52.25 9.90375 47.0962 4.75 38.4512 4.75ZM48.6875 38.4513C48.6875 43.5338 46.6925 46.74 42.6787 48.07C40.375 43.5337 34.9125 40.3037 28.5 40.3037C22.0875 40.3037 16.6487 43.51 14.3212 48.07H14.2975C10.3312 46.7875 8.3125 43.5575 8.3125 38.475V18.5487C8.3125 11.8513 11.8512 8.3125 18.5487 8.3125H38.4512C45.1487 8.3125 48.6875 11.8513 48.6875 18.5487V38.4513Z" fill="#292D32"/>
<path id="Vector_2" d="M28.5001 19C23.7976 19 19.9976 22.8 19.9976 27.5025C19.9976 32.205 23.7976 36.0287 28.5001 36.0287C33.2026 36.0287 37.0026 32.205 37.0026 27.5025C37.0026 22.8 33.2026 19 28.5001 19Z" fill="#292D32"/>
</g>
</g>
</svg>
